# Blender 5.0.0
# www.blender.org
mtllib cuello.mtl
o MO.004
v -7.508942 80.320679 -7.857554
v 6.074861 80.320679 -4.310704
v -2.320394 80.320679 -2.118639
v -2.320386 80.320679 -13.596463
v -7.627833 79.623871 -7.857554
v -2.357126 79.623871 -13.687330
v 6.171052 79.623871 -11.460548
v 6.267237 78.927063 -11.516706
v -2.393865 78.927063 -13.778195
v -7.746724 78.927063 -7.857554
v 6.363422 78.230255 -11.572865
v -2.430605 78.230263 -13.869061
v -7.865616 78.230263 -7.857554
v 6.293368 77.533455 -11.531963
v -2.403847 77.533455 -13.802882
v -7.779025 77.533455 -7.857554
v 5.282231 76.836647 -10.941607
v -2.017628 76.836647 -12.847664
v -6.529193 76.836647 -7.857553
v 5.554401 76.139839 -11.100515
v -2.121588 76.139839 -13.104782
v -6.865614 76.139839 -7.857554
v 6.703397 75.443031 -11.771361
v -2.560464 75.443039 -14.190235
v -8.285850 75.443039 -7.857555
v 6.222205 74.746231 -11.490416
v -2.376666 74.746231 -13.735655
v -7.691065 74.746231 -7.857554
v 5.413616 74.049423 -11.018317
v -2.067813 74.049423 -12.971784
v -6.691594 74.049423 -7.857554
v 6.397091 73.352615 -11.592525
v -2.443467 73.352615 -13.900869
v -7.907235 73.352615 -7.857554
v 7.085585 72.655807 -11.994505
v -2.706447 72.655807 -14.551290
v -8.758262 72.655815 -7.857555
v 6.036288 71.959000 -11.381866
v -2.305652 71.959007 -13.560020
v -7.461260 71.959007 -7.857554
v 5.902231 71.262199 -11.303596
v -2.254447 71.262199 -13.433376
v -7.295556 71.262199 -7.857554
v 7.230468 70.565392 -12.079096
v -2.761788 70.565392 -14.688160
v -8.937347 70.565392 -7.857555
v 7.104172 69.868584 -12.005358
v -2.713548 69.868584 -14.568850
v -8.781239 69.868591 -7.857555
v 5.989295 69.171776 -11.354430
v -2.287704 69.171783 -13.515627
v -7.403174 69.171783 -7.857554
v 6.714643 68.474976 -11.777929
v -2.564761 68.474976 -14.200863
v -8.299754 68.474976 -7.857555
v 7.806200 67.778168 -12.415239
v -2.981699 67.778168 -15.232054
v -9.648992 67.778168 -7.857556
v 6.882174 67.081360 -11.875743
v -2.628753 67.081360 -14.359128
v -8.506834 67.081360 -7.857555
v 6.291947 66.384552 -11.531137
v -2.403307 66.384552 -13.801542
v -7.777274 66.384560 -7.857555
v 7.649545 65.687752 -12.323776
v -2.921862 65.687752 -15.084063
v -9.455357 65.687752 -7.857556
v 7.980145 64.990944 -12.516799
v -3.048141 64.990944 -15.396381
v -9.864001 64.990944 -7.857556
v 6.677227 64.294136 -11.756084
v -2.550471 64.294136 -14.165516
v -8.253506 64.294136 -7.857555
v 7.000068 63.597332 -11.944576
v -2.673785 63.597328 -14.470503
v -8.652560 63.597332 -7.857555
v 8.423244 62.900524 -12.775505
v -3.217390 62.900528 -15.814976
v -10.411704 62.900528 -7.857556
v 7.796160 62.203720 -12.409379
v -2.977865 62.203720 -15.222571
v -9.636586 62.203720 -7.857556
v 6.764056 61.506912 -11.806780
v -2.583637 61.506912 -14.247543
v -8.360834 61.506912 -7.857555
v 7.971051 60.810104 -12.511490
v -3.044668 60.810104 -15.387791
v -9.852764 60.810104 -7.857556
v 8.805431 60.113297 -12.998648
v -3.363372 60.113300 -16.176029
v -10.884114 60.113300 -7.857557
v 7.481950 59.416496 -12.225926
v -2.857849 59.416496 -14.925738
v -9.248201 59.416496 -7.857556
v 7.297228 58.719688 -12.118076
v -2.787292 58.719688 -14.751232
v -9.019873 58.719688 -7.857556
v 8.917248 58.022881 -13.063932
v -3.406083 58.022881 -16.281662
v -11.022326 58.022884 -7.857557
v 9.248979 57.326073 -13.257615
v -3.532793 57.326077 -16.595047
v -11.432368 57.326080 -7.857557
v 9.345164 56.629269 -13.313772
v -3.569532 56.629272 -16.685913
v -11.551259 56.629272 -7.857557
v 9.441350 55.932461 -13.369931
v -3.606272 55.932465 -16.776779
v -11.670151 55.932465 -7.857558
v 9.537535 55.235657 -13.426090
v -3.643011 55.235657 -16.867645
v -11.789042 55.235661 -7.857558
v 9.537525 55.235657 -2.289004
v -3.643023 55.235657 1.152539
v -3.606284 55.932465 1.061674
v 9.345155 56.629272 -2.401320
v -3.569544 56.629272 0.970807
v 9.441340 55.932465 -2.345161
v 9.248971 57.326073 -2.457478
v -3.532804 57.326077 0.879941
v 8.917240 58.022881 -2.651161
v -3.406094 58.022881 0.566556
v 7.297223 58.719688 -3.597019
v -2.787301 58.719692 -0.963874
v 7.481945 59.416492 -3.489169
v -2.857858 59.416496 -0.789367
v -3.363384 60.113300 0.460922
v 8.805424 60.113297 -2.716446
v 7.971045 60.810101 -3.203603
v -3.044678 60.810108 -0.327313
v 6.764051 61.506912 -3.908315
v 7.796154 62.203716 -3.305715
v -2.583646 61.506916 -1.467559
v -2.977875 62.203720 -0.492532
v 8.423240 62.900520 -2.939588
v -3.217400 62.900528 0.099872
v 7.000063 63.597328 -3.770519
v -2.673794 63.597332 -1.244600
v 6.677220 64.294136 -3.959012
v -2.550479 64.294136 -1.549588
v 7.980139 64.990944 -3.198295
v -3.048151 64.990944 -0.318724
v -2.921872 65.687752 -0.631042
v 7.649538 65.687752 -3.391318
v 6.291942 66.384552 -4.183959
v -2.403315 66.384552 -1.913561
v 6.882170 67.081360 -3.839352
v 7.806193 67.778168 -3.299854
v -2.628762 67.081360 -1.355974
v -2.981709 67.778168 -0.483050
v 6.714638 68.474976 -3.937166
v -2.564770 68.474976 -1.514241
v 5.989289 69.171776 -4.360664
v -2.287711 69.171783 -2.199476
v 7.104167 69.868584 -3.709737
v -2.713557 69.868584 -1.146254
v 7.230462 70.565392 -3.635998
v -2.761798 70.565392 -1.026942
v -2.254455 71.262199 -2.281725
v 5.902225 71.262199 -4.411497
v 6.036283 71.959000 -4.333227
v -2.305660 71.959007 -2.155083
v 7.085580 72.655807 -3.720589
v 6.397085 73.352615 -4.122571
v -2.706457 72.655807 -1.163814
v -2.443475 73.352615 -1.814233
v 5.413611 74.049423 -4.696778
v -2.067820 74.049423 -2.743320
v 6.222199 74.746231 -4.224679
v -2.376674 74.746231 -1.979447
v 6.703391 75.443031 -3.943733
v -2.560472 75.443031 -1.524867
v 5.554398 76.139839 -4.614581
v -2.121595 76.139839 -2.610320
v -2.017635 76.836647 -2.867438
v 5.282227 76.836647 -4.773489
v 6.293362 77.533455 -4.183130
v -2.403855 77.533455 -1.912220
v 6.363417 78.230255 -4.142229
v 6.267231 78.927063 -4.198388
v -2.430613 78.230263 -1.846040
v -2.393873 78.927063 -1.936907
v 6.171046 79.623871 -4.254546
v -2.357133 79.623871 -2.027772
v 6.074866 80.320679 -11.404390
vn -0.0000 1.0000 -0.0000
vn -0.7359 0.1256 0.6653
vn -0.7359 0.1256 -0.6653
vn 0.2510 0.1121 -0.9615
vn 0.2511 0.1121 -0.9615
vn 0.2518 -0.0819 -0.9643
vn -0.7386 -0.0918 -0.6678
vn 0.1628 -0.7646 -0.6236
vn -0.4457 -0.7994 -0.4029
vn 0.2407 0.3042 -0.9217
vn -0.6983 0.3372 -0.6314
vn 0.1505 0.8032 -0.5764
vn -0.4092 0.8341 -0.3700
vn -0.6267 -0.5350 -0.5666
vn 0.2200 -0.4916 -0.8426
vn 0.1833 -0.6883 -0.7019
vn -0.5080 -0.7287 -0.4593
vn 0.1655 0.7557 -0.6337
vn -0.4536 0.7913 -0.4101
vn 0.1965 0.6284 -0.7527
vn -0.5497 0.6714 -0.4970
vn 0.1593 -0.7762 -0.6100
vn -0.4351 -0.8099 -0.3934
vn 0.2496 -0.1554 -0.9558
vn -0.7305 -0.1737 -0.6604
vn 0.1364 0.8416 -0.5225
vn -0.3684 0.8680 -0.3331
vn 0.2499 -0.1466 -0.9571
vn -0.7317 -0.1639 -0.6616
vn -0.4178 -0.8263 -0.3777
vn 0.1534 -0.7944 -0.5876
vn 0.1924 0.6481 -0.7368
vn -0.5366 0.6904 -0.4851
vn 0.1555 0.7882 -0.5955
vn -0.4238 0.8207 -0.3832
vn 0.1713 -0.7351 -0.6560
vn -0.4712 -0.7723 -0.4260
vn 0.2077 -0.5693 -0.7954
vn -0.5858 -0.6134 -0.5297
vn 0.1343 0.8469 -0.5145
vn -0.3623 0.8726 -0.3276
vn -0.5859 -0.6134 -0.5297
vn 0.2355 0.3616 -0.9021
vn -0.6802 0.3989 -0.6150
vn 0.1383 -0.8369 -0.5297
vn -0.3737 -0.8638 -0.3379
vn -0.6827 0.3910 -0.6173
vn 0.2363 0.3542 -0.9048
vn 0.1298 0.8579 -0.4971
vn -0.3494 0.8821 -0.3159
vn 0.2035 -0.5926 -0.7793
vn -0.5721 -0.6364 -0.5173
vn -0.5721 -0.6365 -0.5173
vn 0.1609 -0.7711 -0.6161
vn -0.4398 -0.8053 -0.3976
vn 0.1457 0.8169 -0.5581
vn -0.3952 0.8462 -0.3573
vn 0.1805 0.6996 -0.6914
vn -0.4995 0.7393 -0.4516
vn 0.1368 -0.8407 -0.5239
vn -0.3694 -0.8672 -0.3340
vn 0.2469 -0.2118 -0.9456
vn -0.7208 -0.2362 -0.6517
vn -0.3150 0.9053 -0.2848
vn 0.1176 0.8850 -0.4505
vn 0.2354 0.3627 -0.9017
vn -0.6798 0.4001 -0.6146
vn -0.0000 -1.0000 -0.0000
vn 0.2510 0.1121 0.9615
vn 0.9906 0.1367 -0.0000
vn 0.2354 0.3627 0.9017
vn -0.6798 0.4001 0.6146
vn 0.1176 0.8850 0.4505
vn -0.3150 0.9053 0.2848
vn 0.2469 -0.2118 0.9456
vn -0.7208 -0.2362 0.6517
vn -0.3694 -0.8672 0.3340
vn 0.1368 -0.8407 0.5239
vn 0.6410 0.7675 -0.0000
vn 0.6410 0.7676 -0.0000
vn 0.1805 0.6996 0.6914
vn 0.4659 -0.8849 -0.0000
vn 0.5000 0.8660 -0.0000
vn 0.1457 0.8169 0.5581
vn 0.1609 -0.7711 0.6161
vn 0.5596 -0.8288 -0.0000
vn 0.5595 -0.8288 -0.0000
vn -0.4398 -0.8053 0.3976
vn -0.3952 0.8462 0.3573
vn 0.2035 -0.5926 0.7793
vn -0.5722 -0.6364 0.5173
vn 0.1298 0.8579 0.4971
vn -0.5721 -0.6364 0.5173
vn -0.3494 0.8821 0.3159
vn 0.2363 0.3542 0.9048
vn -0.6827 0.3910 0.6173
vn 0.1383 -0.8369 0.5297
vn -0.3737 -0.8638 0.3379
vn -0.6802 0.3989 0.6150
vn 0.2355 0.3616 0.9021
vn 0.4566 0.8897 -0.0000
vn 0.1343 0.8469 0.5145
vn 0.9035 0.4286 -0.0000
vn 0.7631 -0.6463 -0.0000
vn 0.2077 -0.5693 0.7954
vn 0.7630 -0.6463 -0.0000
vn 0.1713 -0.7351 0.6560
vn 0.6021 -0.7984 -0.0000
vn -0.4712 -0.7723 0.4260
vn -0.5859 -0.6134 0.5297
vn -0.5858 -0.6134 0.5297
vn 0.1555 0.7882 0.5955
vn -0.4238 0.8207 0.3832
vn 0.1924 0.6481 0.7368
vn -0.5366 0.6904 0.4851
vn 0.1534 -0.7944 0.5876
vn -0.4178 -0.8263 0.3777
vn 0.2499 -0.1466 0.9571
vn -0.7317 -0.1639 0.6616
vn -0.3684 0.8680 0.3331
vn 0.1364 0.8416 0.5225
vn 0.9820 -0.1889 -0.0000
vn 0.2496 -0.1554 0.9558
vn 0.4646 0.8855 -0.0000
vn 0.5532 -0.8330 -0.0000
vn 0.1593 -0.7762 0.6100
vn 0.1965 0.6284 0.7527
vn 0.7113 0.7029 -0.0000
vn -0.5497 0.6714 0.4970
vn -0.4351 -0.8099 0.3934
vn 0.1655 0.7557 0.6337
vn -0.4536 0.7913 0.4101
vn 0.1833 -0.6883 0.7019
vn -0.5080 -0.7287 0.4593
vn 0.2200 -0.4916 0.8426
vn -0.6267 -0.5350 0.5666
vn 0.1505 0.8032 0.5764
vn -0.4092 0.8341 0.3700
vn -0.6983 0.3372 0.6314
vn 0.2407 0.3042 0.9217
vn 0.5674 -0.8234 -0.0000
vn 0.1628 -0.7646 0.6236
vn 0.9315 0.3638 -0.0000
vn 0.9950 -0.1000 -0.0000
vn 0.2518 -0.0819 0.9643
vn -0.7387 -0.0918 0.6678
vn -0.7386 -0.0918 0.6678
vn -0.4457 -0.7994 0.4029
vn 0.5185 0.8551 -0.0000
vn 0.8229 -0.5682 -0.0000
vn 0.5185 0.8550 -0.0000
vn 0.6528 -0.7575 -0.0000
vn 0.5781 0.8160 -0.0000
vn -0.7305 -0.1737 0.6604
vn 0.9840 -0.1783 -0.0000
vn 0.5300 -0.8480 -0.0000
vn 0.6928 0.7212 -0.0000
vn 0.5381 0.8429 -0.0000
vn -0.3623 0.8726 0.3276
vn 0.4716 -0.8818 -0.0000
vn 0.9035 0.4287 -0.0000
vn 0.9073 0.4204 -0.0000
vn 0.4397 0.8981 -0.0000
vn 0.7433 -0.6689 -0.0000
vn -0.4995 0.7393 0.4516
vn 0.9666 -0.2563 -0.0000
vn 0.3951 0.9186 -0.0000
vn 0.9666 -0.2562 -0.0000
vn 0.9029 0.4299 -0.0000
vn 0.9029 0.4298 -0.0000
s 0
f 4//1 1//1 2//1
f 1//1 3//1 2//1
f 3//2 1//2 5//2
f 1//3 4//3 6//3
f 6//3 5//3 1//3
f 6//4 7//4 8//4
f 7//4 6//4 4//4
f 5//3 6//3 9//3
f 8//4 9//4 6//4
f 9//3 10//3 5//3
f 9//4 8//4 11//4
f 10//3 9//3 12//3
f 11//5 12//5 9//5
f 12//3 13//3 10//3
f 12//6 11//6 14//6
f 13//7 12//7 15//7
f 14//6 15//6 12//6
f 15//8 14//8 17//8
f 16//9 15//9 18//9
f 15//7 16//7 13//7
f 17//8 18//8 15//8
f 18//9 19//9 16//9
f 18//10 17//10 20//10
f 19//11 18//11 21//11
f 20//10 21//10 18//10
f 21//11 22//11 19//11
f 21//12 20//12 23//12
f 22//13 21//13 24//13
f 23//12 24//12 21//12
f 25//14 24//14 27//14
f 24//13 25//13 22//13
f 26//15 27//15 24//15
f 24//15 23//15 26//15
f 27//14 28//14 25//14
f 27//16 26//16 29//16
f 28//17 27//17 30//17
f 29//16 30//16 27//16
f 30//17 31//17 28//17
f 30//18 29//18 32//18
f 31//19 30//19 33//19
f 32//18 33//18 30//18
f 33//19 34//19 31//19
f 33//20 32//20 35//20
f 34//21 33//21 36//21
f 35//20 36//20 33//20
f 36//21 37//21 34//21
f 36//22 35//22 38//22
f 37//23 36//23 39//23
f 38//22 39//22 36//22
f 39//24 38//24 41//24
f 40//25 39//25 42//25
f 39//23 40//23 37//23
f 41//24 42//24 39//24
f 42//25 43//25 40//25
f 42//26 41//26 44//26
f 43//27 42//27 45//27
f 44//26 45//26 42//26
f 45//27 46//27 43//27
f 45//28 44//28 47//28
f 46//29 45//29 48//29
f 47//28 48//28 45//28
f 49//30 48//30 51//30
f 48//29 49//29 46//29
f 50//31 51//31 48//31
f 48//31 47//31 50//31
f 51//30 52//30 49//30
f 51//32 50//32 53//32
f 52//33 51//33 54//33
f 53//32 54//32 51//32
f 54//33 55//33 52//33
f 54//34 53//34 56//34
f 55//35 54//35 57//35
f 56//34 57//34 54//34
f 57//35 58//35 55//35
f 57//36 56//36 59//36
f 58//37 57//37 60//37
f 59//36 60//36 57//36
f 60//37 61//37 58//37
f 60//38 59//38 62//38
f 61//39 60//39 63//39
f 62//38 63//38 60//38
f 63//40 62//40 65//40
f 64//41 63//41 66//41
f 63//42 64//42 61//42
f 65//40 66//40 63//40
f 66//41 67//41 64//41
f 66//43 65//43 68//43
f 67//44 66//44 69//44
f 68//43 69//43 66//43
f 69//44 70//44 67//44
f 69//45 68//45 71//45
f 70//46 69//46 72//46
f 71//45 72//45 69//45
f 73//47 72//47 75//47
f 72//46 73//46 70//46
f 74//48 75//48 72//48
f 72//48 71//48 74//48
f 75//47 76//47 73//47
f 75//49 74//49 77//49
f 76//50 75//50 78//50
f 77//49 78//49 75//49
f 78//50 79//50 76//50
f 78//51 77//51 80//51
f 79//52 78//52 81//52
f 80//51 81//51 78//51
f 81//53 82//53 79//53
f 81//54 80//54 83//54
f 82//55 81//55 84//55
f 83//54 84//54 81//54
f 84//55 85//55 82//55
f 84//56 83//56 86//56
f 85//57 84//57 87//57
f 86//56 87//56 84//56
f 87//58 86//58 89//58
f 88//59 87//59 90//59
f 87//57 88//57 85//57
f 89//58 90//58 87//58
f 90//59 91//59 88//59
f 90//60 89//60 92//60
f 91//61 90//61 93//61
f 92//60 93//60 90//60
f 93//61 94//61 91//61
f 93//62 92//62 95//62
f 94//63 93//63 96//63
f 95//62 96//62 93//62
f 97//64 96//64 99//64
f 96//63 97//63 94//63
f 98//65 99//65 96//65
f 96//65 95//65 98//65
f 99//64 100//64 97//64
f 99//66 98//66 101//66
f 100//67 99//67 102//67
f 101//66 102//66 99//66
f 102//67 103//67 100//67
f 102//4 101//4 104//4
f 103//3 102//3 105//3
f 104//4 105//4 102//4
f 105//3 106//3 103//3
f 105//4 104//4 107//4
f 106//3 105//3 108//3
f 107//4 108//4 105//4
f 108//3 109//3 106//3
f 108//4 107//4 110//4
f 109//3 108//3 111//3
f 110//4 111//4 108//4
f 111//68 110//68 112//68
f 111//3 112//3 109//3
f 110//68 113//68 112//68
f 113//68 114//68 112//68
f 112//2 114//2 115//2
f 115//2 109//2 112//2
f 115//69 118//69 116//69
f 116//69 117//69 115//69
f 109//2 115//2 117//2
f 118//69 115//69 114//69
f 104//70 116//70 118//70
f 107//70 118//70 113//70
f 118//70 107//70 104//70
f 114//69 113//69 118//69
f 117//69 116//69 119//69
f 117//2 106//2 109//2
f 106//2 117//2 120//2
f 119//69 120//69 117//69
f 120//71 119//71 121//71
f 120//2 103//2 106//2
f 103//72 120//72 122//72
f 121//71 122//71 120//71
f 122//73 121//73 123//73
f 123//73 124//73 122//73
f 100//74 122//74 124//74
f 122//72 100//72 103//72
f 124//75 123//75 125//75
f 124//74 97//74 100//74
f 97//76 124//76 126//76
f 125//75 126//75 124//75
f 94//77 126//77 127//77
f 128//78 127//78 126//78
f 126//78 125//78 128//78
f 126//76 94//76 97//76
f 128//79 89//79 86//79
f 86//80 129//80 128//80
f 127//81 128//81 129//81
f 89//82 128//82 125//82
f 129//83 86//83 83//83
f 129//81 130//81 127//81
f 130//84 129//84 131//84
f 83//83 131//83 129//83
f 133//85 131//85 132//85
f 80//86 132//86 131//86
f 131//87 83//87 80//87
f 131//84 133//84 130//84
f 132//85 134//85 133//85
f 85//88 133//88 134//88
f 133//89 85//89 88//89
f 88//89 130//89 133//89
f 134//90 132//90 135//90
f 134//88 82//88 85//88
f 82//91 134//91 136//91
f 135//90 136//90 134//90
f 136//92 135//92 137//92
f 136//93 79//93 82//93
f 79//94 136//94 138//94
f 137//92 138//92 136//92
f 138//95 137//95 139//95
f 139//95 140//95 138//95
f 76//96 138//96 140//96
f 138//94 76//94 79//94
f 140//97 139//97 141//97
f 140//96 73//96 76//96
f 73//98 140//98 142//98
f 141//97 142//97 140//97
f 70//99 142//99 143//99
f 144//100 143//100 142//100
f 142//100 141//100 144//100
f 142//98 70//98 73//98
f 144//101 65//101 62//101
f 62//101 145//101 144//101
f 143//102 144//102 145//102
f 65//103 144//103 141//103
f 145//104 62//104 59//104
f 145//102 146//102 143//102
f 146//105 145//105 147//105
f 59//106 147//106 145//106
f 149//107 147//107 148//107
f 56//108 148//108 147//108
f 147//108 59//108 56//108
f 147//105 149//105 146//105
f 148//107 150//107 149//107
f 61//109 149//109 150//109
f 149//110 61//110 64//110
f 64//111 146//111 149//111
f 150//112 148//112 151//112
f 150//109 58//109 61//109
f 58//113 150//113 152//113
f 151//112 152//112 150//112
f 152//114 151//114 153//114
f 152//113 55//113 58//113
f 55//115 152//115 154//115
f 153//114 154//114 152//114
f 154//116 153//116 155//116
f 155//116 156//116 154//116
f 52//117 154//117 156//117
f 154//115 52//115 55//115
f 156//118 155//118 157//118
f 156//117 49//117 52//117
f 49//119 156//119 158//119
f 157//118 158//118 156//118
f 46//120 158//120 159//120
f 160//121 159//121 158//121
f 158//121 157//121 160//121
f 158//119 46//119 49//119
f 160//122 41//122 38//122
f 38//122 161//122 160//122
f 159//123 160//123 161//123
f 41//124 160//124 157//124
f 161//125 38//125 35//125
f 161//123 162//123 159//123
f 162//126 161//126 163//126
f 35//125 163//125 161//125
f 165//127 163//127 164//127
f 32//128 164//128 163//128
f 163//128 35//128 32//128
f 163//126 165//126 162//126
f 164//127 166//127 165//127
f 37//129 165//129 166//129
f 165//130 37//130 40//130
f 40//130 162//130 165//130
f 166//131 164//131 167//131
f 166//129 34//129 37//129
f 34//132 166//132 168//132
f 167//131 168//131 166//131
f 168//133 167//133 169//133
f 168//132 31//132 34//132
f 31//134 168//134 170//134
f 169//133 170//133 168//133
f 170//135 169//135 171//135
f 171//135 172//135 170//135
f 28//136 170//136 172//136
f 170//134 28//134 31//134
f 172//137 171//137 173//137
f 172//136 25//136 28//136
f 25//138 172//138 174//138
f 173//137 174//137 172//137
f 22//139 174//139 175//139
f 176//140 175//140 174//140
f 174//140 173//140 176//140
f 174//138 22//138 25//138
f 176//141 17//141 14//141
f 14//141 177//141 176//141
f 175//142 176//142 177//142
f 17//143 176//143 173//143
f 177//144 14//144 11//144
f 177//142 178//142 175//142
f 178//145 177//145 179//145
f 11//144 179//144 177//144
f 181//69 179//69 180//69
f 8//70 180//70 179//70
f 179//70 11//70 8//70
f 179//145 181//145 178//145
f 180//69 182//69 181//69
f 13//2 181//2 182//2
f 181//146 13//146 16//146
f 16//147 178//147 181//147
f 182//69 180//69 183//69
f 182//2 10//2 13//2
f 10//2 182//2 184//2
f 183//69 184//69 182//69
f 184//69 183//69 2//69
f 184//2 5//2 10//2
f 5//2 184//2 3//2
f 2//69 3//69 184//69
f 183//70 7//70 185//70
f 185//70 2//70 183//70
f 7//70 183//70 180//70
f 4//4 185//4 7//4
f 185//1 4//1 2//1
f 180//70 8//70 7//70
f 178//148 16//148 19//148
f 19//148 175//148 178//148
f 175//139 19//139 22//139
f 20//149 173//149 171//149
f 173//143 20//143 17//143
f 23//150 171//150 169//150
f 171//151 23//151 20//151
f 26//152 169//152 167//152
f 169//150 26//150 23//150
f 29//153 167//153 164//153
f 167//152 29//152 26//152
f 164//153 32//153 29//153
f 162//154 40//154 43//154
f 43//154 159//154 162//154
f 159//120 43//120 46//120
f 44//155 157//155 155//155
f 157//124 44//124 41//124
f 47//156 155//156 153//156
f 155//155 47//155 44//155
f 50//157 153//157 151//157
f 153//156 50//156 47//156
f 53//158 151//158 148//158
f 151//157 53//157 50//157
f 148//158 56//158 53//158
f 146//159 64//159 67//159
f 67//159 143//159 146//159
f 143//99 67//99 70//99
f 68//160 141//160 139//160
f 141//161 68//161 65//161
f 71//162 139//162 137//162
f 139//160 71//160 68//160
f 74//163 137//163 135//163
f 137//162 74//162 71//162
f 77//164 135//164 132//164
f 135//163 77//163 74//163
f 132//164 80//164 77//164
f 130//165 88//165 91//165
f 91//165 127//165 130//165
f 127//77 91//77 94//77
f 92//166 125//166 123//166
f 125//82 92//82 89//82
f 95//167 123//167 121//167
f 123//168 95//168 92//168
f 98//169 121//169 119//169
f 121//167 98//167 95//167
f 101//70 119//70 116//70
f 119//170 101//170 98//170
f 116//70 104//70 101//70
f 113//70 110//70 107//70
