# Blender 5.0.0
# www.blender.org
mtllib mochila.mtl
o MO.010
v 15.342781 35.433865 -32.177738
v 0.123858 43.885712 -33.300091
v 0.123859 35.433865 -32.177738
v 15.342780 43.885715 -33.300091
v 15.697781 43.862167 -32.938847
v 15.697782 35.346329 -31.807997
v 15.342781 28.823997 -29.218115
v 15.342781 28.267141 -28.881517
v 0.123859 28.823997 -29.218117
v 15.697782 28.672470 -28.839876
v 15.697781 31.392447 -23.466591
v 15.697782 20.152775 -23.013702
v 15.342782 19.797785 -23.016449
v 0.123859 19.797783 -23.016449
v 0.123858 31.392445 -23.466591
v 0.123858 42.936718 -23.416954
v -0.019497 31.373302 -24.575603
v -0.019496 20.796757 -23.498451
v -0.162850 28.267139 -28.881519
v -0.162850 19.797783 -23.016449
v -0.019496 28.983372 -28.034594
v 0.123859 28.267139 -28.881519
v -0.162850 28.823997 -29.218117
v -0.019496 29.191650 -28.171646
v -0.019496 35.579876 -31.078215
v -0.162850 35.433865 -32.177738
v -0.162851 43.885712 -33.300091
v -15.381773 28.823996 -29.218119
v -15.381773 35.433865 -32.177742
v -15.736773 35.346325 -31.808001
v -15.736774 43.862167 -32.938850
v -15.381774 43.885712 -33.300095
v -15.381774 52.337563 -34.422447
v -15.736774 52.378006 -34.069702
v -15.381774 52.729965 -34.116493
v -15.736776 53.871780 -21.471045
v -15.381777 54.231857 -21.411255
v -15.736774 42.936718 -23.416956
v -15.736774 31.392445 -23.466591
v -0.162851 42.936718 -23.416954
v -0.162851 31.392445 -23.466591
v -0.162853 54.231857 -21.411255
v -0.019497 43.036434 -24.521641
v -0.019498 53.470657 -22.218002
v 0.123858 52.729965 -34.116493
v -0.019497 51.763626 -33.572006
v 0.123857 54.231857 -21.411255
v 15.342779 54.231861 -21.411253
v 15.697779 53.871788 -21.471043
v 15.697781 42.936722 -23.416954
v 15.697781 52.378006 -34.069695
v 15.342780 52.337563 -34.422443
v 15.342780 52.729965 -34.116489
v 0.123858 52.337563 -34.422443
v -0.019497 52.046944 -33.352016
v -0.162852 52.729965 -34.116493
v -0.019496 44.031723 -32.200569
v -0.162852 52.337563 -34.422443
v -15.736773 20.152771 -23.013706
v -15.736773 28.672468 -28.839880
v -15.381774 19.797783 -23.016451
v -15.381773 28.267139 -28.881521
vn -0.0000 -0.1316 -0.9913
vn -0.0000 -0.4087 -0.9127
vn 0.7071 -0.0931 -0.7010
vn 0.6476 -0.3114 -0.6955
vn -0.0000 -0.5173 -0.8558
vn 0.5685 -0.4256 -0.7041
vn 0.6247 -0.3173 -0.7135
vn 1.0000 -0.0000 -0.0000
vn 0.5955 -0.4535 -0.6631
vn 0.4989 -0.4934 -0.7125
vn -0.0479 0.0402 0.9980
vn -0.0000 -0.5693 -0.8221
vn -0.0000 0.0388 0.9992
vn -0.9917 -0.0006 0.1282
vn -0.0000 -0.0043 1.0000
vn -0.9514 0.0119 0.3077
vn -0.9917 0.0130 0.1280
vn 0.9914 -0.0633 -0.1143
vn 0.7690 -0.3639 -0.5255
vn 0.9351 0.0359 0.3525
vn -0.4000 -0.4442 -0.8017
vn 0.9915 -0.0671 -0.1111
vn -0.9917 -0.0733 -0.1059
vn -0.9916 -0.0710 -0.1078
vn 0.9912 -0.0726 -0.1103
vn 0.9910 -0.0554 -0.1218
vn -0.9917 -0.0533 -0.1171
vn 0.9917 -0.0526 -0.1174
vn -0.9914 -0.0677 -0.1120
vn 0.9918 -0.0169 -0.1271
vn -0.6476 -0.3114 -0.6955
vn -0.7071 -0.0931 -0.7010
vn -0.7071 -0.0931 -0.7009
vn -1.0000 -0.0000 -0.0000
vn -0.5808 0.5005 -0.6420
vn -0.7071 0.7022 -0.0833
vn 0.0119 -0.1752 0.9845
vn -0.7027 0.7066 -0.0835
vn -0.0000 -0.1748 0.9846
vn 0.9917 -0.0006 0.1286
vn 0.9773 -0.0370 0.2086
vn 0.9916 -0.0279 0.1262
vn -0.9746 -0.0483 0.2187
vn -0.9906 0.1355 -0.0204
vn -0.9773 0.2104 -0.0249
vn 0.9753 0.2185 -0.0328
vn -0.0000 0.9931 -0.1174
vn -0.0000 -0.1638 0.9865
vn -0.0003 -0.1748 0.9846
vn -0.9917 -0.0225 0.1267
vn -0.0000 -0.1752 0.9845
vn 0.7026 0.7066 -0.0838
vn 0.5809 0.5005 -0.6419
vn 0.7071 0.7022 -0.0830
vn -0.0000 0.6149 -0.7886
vn -0.9903 0.0853 -0.1094
vn -0.9903 -0.0183 -0.1376
vn 0.9903 -0.0850 0.1095
vn -0.9903 -0.0851 0.1096
vn 0.9903 0.0853 -0.1095
vn -0.9918 -0.0182 -0.1269
vn 0.9902 -0.0198 -0.1380
vn -0.9918 -0.0169 -0.1271
vn 0.9903 0.1377 -0.0163
vn 0.9917 -0.0006 0.1282
vn -0.9917 -0.0006 0.1286
vn -0.0000 0.0403 0.9992
vn 0.0011 0.0388 0.9992
vn 0.9917 0.0050 0.1281
vn -0.4958 -0.4902 -0.7169
vn -0.0000 -0.0077 1.0000
vn -0.5982 -0.4562 -0.6588
vn -0.5685 -0.4256 -0.7041
vn -0.6247 -0.3173 -0.7135
vn -0.9910 -0.0546 -0.1220
s 0
f 2//1 4//1 1//1
f 1//1 3//1 2//1
f 3//2 1//2 7//2
f 1//3 4//3 5//3
f 5//3 6//3 1//3
f 7//4 1//4 6//4
f 9//5 7//5 8//5
f 10//6 8//6 7//6
f 7//2 9//2 3//2
f 6//7 10//7 7//7
f 10//8 6//8 11//8
f 11//8 12//8 10//8
f 8//9 10//9 12//9
f 12//10 13//10 8//10
f 13//11 12//11 11//11
f 8//12 13//12 14//12
f 13//13 11//13 15//13
f 14//13 13//13 15//13
f 17//14 15//14 16//14
f 16//15 15//15 11//15
f 18//16 14//16 15//16
f 15//17 17//17 18//17
f 19//18 21//18 18//18
f 18//19 20//19 19//19
f 20//20 18//20 17//20
f 14//21 18//21 21//21
f 21//22 19//22 23//22
f 21//23 22//23 14//23
f 22//24 21//24 24//24
f 23//25 24//25 21//25
f 26//26 25//26 24//26
f 9//27 24//27 25//27
f 24//28 23//28 26//28
f 24//29 9//29 22//29
f 25//30 26//30 27//30
f 27//1 26//1 29//1
f 26//2 23//2 28//2
f 28//2 29//2 26//2
f 30//31 29//31 28//31
f 29//32 30//32 31//32
f 31//32 32//32 29//32
f 29//1 32//1 27//1
f 32//33 31//33 34//33
f 34//32 33//32 32//32
f 27//1 32//1 33//1
f 36//34 34//34 31//34
f 33//35 34//35 35//35
f 35//36 34//36 36//36
f 31//34 38//34 36//34
f 37//37 36//37 38//37
f 36//38 37//38 35//38
f 30//34 39//34 38//34
f 40//15 38//15 39//15
f 37//39 38//39 40//39
f 38//34 31//34 30//34
f 39//15 41//15 40//15
f 43//40 40//40 41//40
f 42//39 37//39 40//39
f 44//41 42//41 40//41
f 40//42 43//42 44//42
f 47//43 44//43 43//43
f 45//44 46//44 44//44
f 44//45 47//45 45//45
f 42//46 44//46 46//46
f 45//47 47//47 48//47
f 49//48 48//48 47//48
f 49//49 47//49 16//49
f 43//50 16//50 47//50
f 49//8 50//8 5//8
f 50//51 49//51 16//51
f 5//8 51//8 49//8
f 48//52 49//52 51//52
f 4//3 52//3 51//3
f 53//53 51//53 52//53
f 51//54 53//54 48//54
f 51//3 5//3 4//3
f 54//55 45//55 53//55
f 48//47 53//47 45//47
f 53//55 52//55 54//55
f 2//1 54//1 52//1
f 46//56 45//56 54//56
f 55//57 54//57 2//57
f 54//58 55//58 46//58
f 56//59 46//59 55//59
f 55//60 58//60 56//60
f 2//61 57//61 55//61
f 58//62 55//62 57//62
f 35//55 56//55 58//55
f 57//30 27//30 58//30
f 33//1 58//1 27//1
f 58//55 33//55 35//55
f 27//30 57//30 25//30
f 3//63 25//63 57//63
f 57//63 2//63 3//63
f 46//64 56//64 42//64
f 42//47 56//47 35//47
f 52//1 4//1 2//1
f 11//15 50//15 16//15
f 50//8 11//8 6//8
f 6//8 5//8 50//8
f 41//65 17//65 43//65
f 16//66 43//66 17//66
f 35//47 37//47 42//47
f 39//67 59//67 41//67
f 59//68 20//68 41//68
f 17//69 41//69 20//69
f 60//34 59//34 39//34
f 61//70 59//70 60//70
f 59//71 61//71 20//71
f 61//12 62//12 19//12
f 19//12 20//12 61//12
f 60//72 62//72 61//72
f 23//5 19//5 62//5
f 62//5 28//5 23//5
f 28//73 62//73 60//73
f 39//34 30//34 60//34
f 28//74 60//74 30//74
f 25//75 3//75 9//75
f 14//12 22//12 8//12
f 8//5 22//5 9//5
