# Blender 5.0.0
# www.blender.org
mtllib mochila.mtl
o MO.010
v 15.342781 35.433865 -32.177738
v 0.123858 43.885712 -33.300091
v 0.123859 35.433865 -32.177738
v 15.342780 43.885715 -33.300091
v 15.697781 43.862167 -32.938847
v 15.697782 35.346329 -31.807997
v 15.342781 28.823997 -29.218115
v 15.342781 28.267141 -28.881517
v 0.123859 28.823997 -29.218117
v 15.697782 28.672470 -28.839876
v 15.697781 31.392447 -23.466591
v 15.697782 20.152775 -23.013702
v 15.342782 19.797785 -23.016449
v 0.123859 19.797783 -23.016449
v 0.123858 31.392445 -23.466591
v 0.123858 42.936718 -23.416954
v -0.019497 31.373302 -24.575603
v -0.019496 20.796757 -23.498451
v -0.162850 28.267139 -28.881519
v -0.162850 19.797783 -23.016449
v -0.019496 28.983372 -28.034594
v 0.123859 28.267139 -28.881519
v -0.162850 28.823997 -29.218117
v -0.019496 29.191650 -28.171646
v -0.019496 35.579876 -31.078215
v -0.162850 35.433865 -32.177738
v -0.162851 43.885712 -33.300091
v -15.381773 28.823996 -29.218119
v -15.381773 35.433865 -32.177742
v -15.736773 35.346325 -31.808001
v -15.736774 43.862167 -32.938850
v -15.381774 43.885712 -33.300095
v -15.381774 52.337563 -34.422447
v -15.736774 52.378006 -34.069702
v -15.381774 52.729965 -34.116493
v -15.736776 53.871780 -21.471045
v -15.381777 54.231857 -21.411255
v -15.736774 42.936718 -23.416956
v -15.736774 31.392445 -23.466591
v -0.162851 42.936718 -23.416954
v -0.162851 31.392445 -23.466591
v -0.162853 54.231857 -21.411255
v -0.019497 43.036434 -24.521641
v -0.019498 53.470657 -22.218002
v 0.123858 52.729965 -34.116493
v -0.019497 51.763626 -33.572006
v 0.123857 54.231857 -21.411255
v 15.342779 54.231861 -21.411253
v 15.697779 53.871788 -21.471043
v 15.697781 42.936722 -23.416954
v 15.697781 52.378006 -34.069695
v 15.342780 52.337563 -34.422443
v 15.342780 52.729965 -34.116489
v 0.123858 52.337563 -34.422443
v -0.019497 52.046944 -33.352016
v -0.162852 52.729965 -34.116493
v -0.019496 44.031723 -32.200569
v -0.162852 52.337563 -34.422443
v -15.736773 20.152771 -23.013706
v -15.736773 28.672468 -28.839880
v -15.381774 19.797783 -23.016451
v -15.381773 28.267139 -28.881521
vn -0.0000 -0.1316 -0.9913
vn -0.0000 -0.2730 -0.9620
vn -0.0000 -0.4639 -0.8859
vn 0.6888 -0.1765 -0.7031
vn 0.7071 -0.0931 -0.7010
vn 0.6746 -0.2274 -0.7023
vn 0.6092 -0.3504 -0.7114
vn 0.3065 -0.5203 -0.7971
vn 0.5950 -0.4013 -0.6963
vn 1.0000 -0.0000 -0.0000
vn 0.5009 -0.4927 -0.7116
vn 0.1948 -0.5584 -0.8064
vn -0.0154 0.0393 0.9991
vn -0.0479 0.0402 0.9980
vn -0.0005 0.0173 0.9999
vn -0.0000 -0.5693 -0.8221
vn -0.0000 0.0173 0.9999
vn -0.0000 0.0388 0.9992
vn -0.9917 0.0061 0.1281
vn -0.9914 0.0062 0.1306
vn -0.9918 -0.0115 0.1276
vn -0.0001 -0.0900 0.9959
vn -0.9535 0.0120 0.3011
vn -0.9514 0.0119 0.3077
vn 0.9915 -0.0651 -0.1128
vn 0.9914 -0.0674 -0.1122
vn 0.9914 -0.0633 -0.1143
vn 0.7690 -0.3639 -0.5255
vn 0.9522 0.0292 0.3041
vn 0.9351 0.0359 0.3525
vn 0.9914 0.0025 0.1308
vn -0.4000 -0.4442 -0.8017
vn 0.9916 -0.0595 -0.1145
vn -0.9917 -0.0720 -0.1070
vn -0.9916 -0.0710 -0.1084
vn -0.9917 -0.0733 -0.1059
vn -0.9917 -0.0624 -0.1127
vn 0.9915 -0.0637 -0.1137
vn 0.9916 -0.0341 -0.1245
vn 0.9915 -0.0378 -0.1243
vn -0.9916 -0.0599 -0.1151
vn -0.9916 -0.0373 -0.1241
vn 0.9918 -0.0169 -0.1271
vn -0.6746 -0.2274 -0.7023
vn -0.6888 -0.1765 -0.7031
vn -0.6092 -0.3504 -0.7114
vn -0.7071 -0.0931 -0.7010
vn -1.0000 -0.0000 -0.0000
vn -0.5808 0.5005 -0.6420
vn -0.7070 0.7023 -0.0833
vn -0.7071 0.7022 -0.0833
vn -0.7028 0.7065 -0.0835
vn 0.0038 -0.1749 0.9846
vn 0.0119 -0.1752 0.9845
vn 0.0001 -0.0899 0.9960
vn -0.7027 0.7066 -0.0835
vn -0.0000 -0.0899 0.9960
vn -0.0000 0.0180 0.9998
vn 0.0003 0.0175 0.9998
vn 0.9917 -0.0140 0.1274
vn 0.9915 -0.0144 0.1290
vn 0.9917 0.0022 0.1282
vn -0.0000 -0.1748 0.9846
vn 0.9919 0.0921 0.0878
vn 0.9921 0.0869 0.0903
vn -0.9922 0.0842 0.0916
vn -0.9918 0.0808 0.0988
vn -0.9915 -0.0119 0.1294
vn -0.9915 0.1123 -0.0651
vn -0.9913 0.1259 -0.0375
vn 0.9900 0.1399 -0.0167
vn -0.0000 0.9931 -0.1174
vn -0.0001 -0.1714 0.9852
vn -0.0000 -0.1638 0.9865
vn -0.0003 -0.1747 0.9846
vn -0.0000 -0.0901 0.9959
vn 0.7027 0.7065 -0.0838
vn 0.7026 0.7066 -0.0838
vn 0.7070 0.7023 -0.0830
vn 0.5809 0.5005 -0.6419
vn 0.7071 0.7022 -0.0830
vn -0.0000 0.6149 -0.7886
vn -0.9903 0.0853 -0.1094
vn -0.9904 -0.0183 -0.1368
vn -0.9903 -0.0183 -0.1376
vn -0.9917 -0.0176 -0.1274
vn 0.9903 -0.0850 0.1095
vn -0.9903 -0.0851 0.1096
vn 0.9912 -0.0000 -0.1327
vn 0.9918 0.0330 -0.1233
vn 0.9903 0.0853 -0.1095
vn -0.9918 -0.0175 -0.1270
vn 0.9917 -0.0170 -0.1275
vn -0.9916 -0.0339 -0.1248
vn 0.9903 0.1377 -0.0163
vn 0.0003 0.0243 0.9997
vn 0.0010 0.0381 0.9993
vn -0.5004 -0.4889 -0.7146
vn -0.4958 -0.4902 -0.7169
vn -0.5947 -0.4026 -0.6959
vn -0.0000 -0.0077 1.0000
vn -0.0000 -0.5436 -0.8394
vn -0.5896 -0.4473 -0.6726
vt 0.000427 0.113198
vt 0.209424 0.113399
vt 0.209851 0.226597
vt 0.000854 0.226395
vt 0.209702 0.326023
vt 0.684133 0.733160
vt 0.663428 0.617901
vt 0.668413 0.617987
vt 0.689274 0.734119
vt 0.214647 0.229649
vt 0.000705 0.325822
vt 0.209669 0.334857
vt 0.214501 0.329932
vt 0.734188 0.823825
vt 0.806205 0.783133
vt 0.819474 0.937063
vt 0.213843 0.468617
vt 0.208997 0.473105
vt 0.647599 0.473452
vt 0.642724 0.468581
vt 0.642753 0.314773
vt 0.000000 0.472904
vt 0.856659 0.314769
vt 0.856629 0.473448
vt 0.243435 0.789036
vt 0.228239 0.788072
vt 0.234941 0.629654
vt 0.856673 0.156407
vt 0.221892 0.933457
vt 0.214647 0.946862
vt 0.091416 0.834118
vt 0.102583 0.823746
vt 0.170055 0.933165
vt 0.177301 0.946567
vt 0.148512 0.788744
vt 0.179074 0.616026
vt 0.177301 0.600795
vt 0.179074 0.473106
vt 0.086442 0.826693
vt 0.883797 0.332235
vt 0.897886 0.338058
vt 0.856673 0.473418
vt 0.884717 0.328936
vt 0.100570 0.820976
vt 0.041608 0.737899
vt 0.056606 0.735188
vt 0.899954 0.329363
vt 0.895956 0.233197
vt 0.020804 0.622657
vt 0.427779 0.113195
vt 0.428587 0.226391
vt 0.219591 0.226893
vt 0.428773 0.325817
vt 0.219776 0.326320
vt 0.214647 0.229952
vt 0.564117 0.733166
vt 0.558972 0.734116
vt 0.579833 0.617984
vt 0.584822 0.617907
vt 0.218783 0.113698
vt 0.600695 0.501853
vt 0.605526 0.502648
vt 0.217975 0.000502
vt 0.428773 0.473451
vt 0.601575 0.497072
vt 0.995194 0.682482
vt 0.995123 0.687358
vt 0.820870 0.687358
vt 0.448608 0.624707
vt 0.637803 0.000000
vt 0.642680 0.004983
vt 0.642724 0.156407
vt 0.819474 0.682482
vt 0.442042 0.783131
vt 0.428818 0.156411
vt 0.642709 0.314769
vt 0.428803 0.314772
vt 0.141793 0.628691
vt 0.157007 0.629357
vt 0.163710 0.787776
vt 0.428773 0.000004
vt 0.166725 0.484061
vt 0.177301 0.473106
vt 0.214647 0.473403
vt 0.225222 0.484355
vt 0.250154 0.628985
vt 0.388002 0.502133
vt 0.379906 0.515035
vt 0.012040 0.514742
vt 0.995194 0.901264
vt 0.819474 0.901264
vt 0.819474 0.692234
vt 0.642724 0.004987
vt 0.647598 0.000004
vt 0.856628 0.000000
vt 0.819474 0.473452
vt 0.799639 0.624708
vt 0.642768 0.156411
vt 0.647552 0.501855
vt 0.820870 0.687358
vt 0.995123 0.687358
vt 0.642724 0.502641
vt 0.646675 0.497066
vt 0.995194 0.692234
vt 1.000000 0.901264
vt 1.000000 0.692234
vt 0.000000 -0.000000
vt 0.208997 0.000202
vt 0.391948 0.507712
vt 0.856673 0.008284
vt 0.869465 0.000000
vt 0.890212 0.115251
vt 0.183622 0.473106
vt 0.183622 0.488335
vt 0.179074 0.486441
vt 0.188163 0.473106
vt 0.188163 0.488343
vt 0.183622 0.486433
vt 0.014877 0.510714
vt 0.000000 0.507416
vt 0.003947 0.501836
vt 0.875210 0.117946
vt 0.035802 0.619947
vt 0.995194 0.473452
vt 1.000000 0.473452
vt 0.426971 -0.000000
vt 1.000000 0.682482
vt 0.910959 0.230503
vt 0.642679 0.468577
vt 0.428773 0.473451
vt 0.514059 0.823822
vt 0.428773 0.937060
vt 0.219567 0.473403
vt 0.214647 0.468922
vt 0.214839 0.330236
vt 0.637803 0.473448
vt 0.219773 0.335153
vt 0.428770 0.334651
vt 0.428564 0.472901
vt 0.000672 0.334655
s 1
f 2/1/1 4/2/1 1/3/2
f 1/3/2 3/4/2 2/1/1
f 3/4/2 1/3/2 7/5/3
f 1/6/4 4/7/5 5/8/5
f 5/8/5 6/9/6 1/6/4
f 7/5/7 1/3/4 6/10/6
f 9/11/3 7/5/3 8/12/8
f 10/13/9 8/12/8 7/5/7
f 7/5/3 9/11/3 3/4/2
f 6/10/6 10/13/9 7/5/7
f 10/14/10 6/9/10 11/15/10
f 11/15/10 12/16/10 10/14/10
f 8/12/8 10/13/9 12/17/11
f 12/17/11 13/18/12 8/12/8
f 13/19/13 12/20/14 11/21/15
f 8/12/8 13/18/12 14/22/16
f 13/19/13 11/21/15 15/23/17
f 14/24/18 13/19/13 15/23/17
f 17/25/19 15/26/20 16/27/21
f 16/28/22 15/23/17 11/21/15
f 18/29/23 14/30/24 15/26/20
f 15/26/20 17/25/19 18/29/23
f 19/31/25 21/32/26 18/33/27
f 18/33/28 20/34/28 19/31/28
f 20/34/29 18/33/30 17/35/31
f 14/36/32 18/37/32 21/38/32
f 21/32/26 19/31/25 23/39/33
f 21/40/34 22/41/35 14/42/36
f 22/41/35 21/40/34 24/43/37
f 23/39/33 24/44/38 21/32/26
f 26/45/39 25/46/40 24/44/38
f 9/47/41 24/43/37 25/48/42
f 24/44/38 23/39/33 26/45/39
f 24/43/37 9/47/41 22/41/35
f 25/46/40 26/45/39 27/49/43
f 27/50/1 26/51/2 29/52/2
f 26/51/2 23/53/3 28/54/3
f 28/54/3 29/52/2 26/51/2
f 30/55/44 29/52/45 28/54/46
f 29/56/45 30/57/44 31/58/47
f 31/58/47 32/59/47 29/56/45
f 29/52/2 32/60/1 27/50/1
f 32/59/47 31/58/47 34/61/47
f 34/61/47 33/62/47 32/59/47
f 27/50/1 32/60/1 33/63/1
f 36/64/48 34/61/48 31/58/48
f 33/62/49 34/61/49 35/65/49
f 35/66/50 34/67/51 36/68/52
f 31/58/48 38/69/48 36/64/48
f 37/70/53 36/71/54 38/72/55
f 36/68/52 37/73/56 35/66/50
f 30/57/48 39/74/48 38/69/48
f 40/75/57 38/72/55 39/76/58
f 37/70/53 38/72/55 40/75/57
f 38/69/48 31/58/48 30/57/48
f 39/76/58 41/77/59 40/75/57
f 43/78/60 40/79/61 41/80/62
f 42/81/63 37/70/53 40/75/57
f 44/82/64 42/83/65 40/79/61
f 40/79/61 43/78/60 44/82/64
f 47/84/66 44/85/67 43/86/68
f 45/87/69 46/88/70 44/85/67
f 44/85/67 47/84/66 45/87/69
f 42/83/65 44/82/64 46/89/71
f 45/90/72 47/91/72 48/92/72
f 49/93/73 48/94/74 47/95/75
f 49/93/73 47/95/75 16/28/22
f 43/86/68 16/27/21 47/84/66
f 49/96/10 50/97/10 5/8/10
f 50/98/76 49/93/73 16/28/22
f 5/8/10 51/99/10 49/96/10
f 48/92/77 49/100/78 51/101/79
f 4/7/5 52/102/5 51/99/5
f 53/103/80 51/99/80 52/102/80
f 51/101/79 53/104/81 48/92/77
f 51/99/5 5/8/5 4/7/5
f 54/105/82 45/90/82 53/104/82
f 48/92/72 53/104/72 45/90/72
f 53/104/82 52/106/82 54/105/82
f 2/1/1 54/107/1 52/108/1
f 46/88/70 45/87/69 54/109/83
f 55/110/84 54/111/85 2/112/86
f 54/113/87 55/114/87 46/115/87
f 56/116/88 46/117/88 55/118/88
f 55/119/89 58/120/90 56/121/91
f 2/112/86 57/122/92 55/110/84
f 58/120/90 55/119/89 57/123/93
f 35/66/82 56/124/82 58/125/82
f 57/123/93 27/49/43 58/120/90
f 33/63/1 58/126/1 27/50/1
f 58/125/82 33/127/82 35/66/82
f 27/49/43 57/123/93 25/46/40
f 3/128/94 25/48/42 57/122/92
f 57/122/92 2/112/86 3/128/94
f 46/89/71 56/121/95 42/83/65
f 42/96/72 56/124/72 35/66/72
f 52/108/1 4/2/1 2/1/1
f 11/21/15 50/98/76 16/28/22
f 50/97/10 11/15/10 6/9/10
f 6/9/10 5/8/10 50/97/10
f 41/80/62 17/35/31 43/78/60
f 16/27/21 43/86/68 17/25/19
f 35/66/72 37/73/72 42/96/72
f 39/76/58 59/129/96 41/77/59
f 59/129/96 20/130/97 41/77/59
f 17/35/31 41/80/62 20/34/29
f 60/131/48 59/132/48 39/74/48
f 61/133/98 59/134/99 60/135/100
f 59/129/96 61/136/101 20/130/97
f 61/133/16 62/137/102 19/138/102
f 19/138/102 20/139/16 61/133/16
f 60/135/100 62/137/103 61/133/98
f 23/53/3 19/138/102 62/137/102
f 62/137/102 28/54/3 23/53/3
f 28/54/46 62/137/103 60/135/100
f 39/74/48 30/57/48 60/131/48
f 28/54/46 60/135/100 30/55/44
f 25/48/42 3/128/94 9/47/41
f 14/22/16 22/140/102 8/12/8
f 8/12/8 22/140/102 9/11/3
